<?xml version="1.0" encoding="UTF-8"?>
<svg xmlns="http://www.w3.org/2000/svg" xmlns:xlink="http://www.w3.org/1999/xlink" width="120pt" height="40pt" viewBox="0 0 120 40" version="1.1">
<defs>
<linearGradient id="linear0" gradientUnits="userSpaceOnUse" x1="31.8" y1="183.29" x2="15.02" y2="166.51" gradientTransform="matrix(0.774194,0,0,-0.666667,0,134.666667)">
<stop offset="0" style="stop-color:rgb(0%,62.745098%,100%);stop-opacity:1;"/>
<stop offset="0.01" style="stop-color:rgb(0%,63.137255%,100%);stop-opacity:1;"/>
<stop offset="0.26" style="stop-color:rgb(0%,74.509804%,100%);stop-opacity:1;"/>
<stop offset="0.51" style="stop-color:rgb(0%,82.352941%,100%);stop-opacity:1;"/>
<stop offset="0.76" style="stop-color:rgb(0%,87.45098%,100%);stop-opacity:1;"/>
<stop offset="1" style="stop-color:rgb(0%,89.019608%,100%);stop-opacity:1;"/>
</linearGradient>
<linearGradient id="linear1" gradientUnits="userSpaceOnUse" x1="43.83" y1="172" x2="19.64" y2="172" gradientTransform="matrix(0.774194,0,0,-0.666667,0,134.666667)">
<stop offset="0" style="stop-color:rgb(100%,87.843137%,0%);stop-opacity:1;"/>
<stop offset="0.41" style="stop-color:rgb(100%,74.117647%,0%);stop-opacity:1;"/>
<stop offset="0.78" style="stop-color:rgb(100%,64.705882%,0%);stop-opacity:1;"/>
<stop offset="1" style="stop-color:rgb(100%,61.176471%,0%);stop-opacity:1;"/>
</linearGradient>
<linearGradient id="linear2" gradientUnits="userSpaceOnUse" x1="34.83" y1="169.7" x2="12.07" y2="146.95" gradientTransform="matrix(0.774194,0,0,-0.666667,0,134.666667)">
<stop offset="0" style="stop-color:rgb(100%,22.745098%,26.666667%);stop-opacity:1;"/>
<stop offset="1" style="stop-color:rgb(76.470588%,6.666667%,38.431373%);stop-opacity:1;"/>
</linearGradient>
<linearGradient id="linear3" gradientUnits="userSpaceOnUse" x1="17.3" y1="191.82" x2="27.46" y2="181.66" gradientTransform="matrix(0.774194,0,0,-0.666667,0,134.666667)">
<stop offset="0" style="stop-color:rgb(19.607843%,62.745098%,44.313725%);stop-opacity:1;"/>
<stop offset="0.07" style="stop-color:rgb(17.647059%,65.490196%,44.313725%);stop-opacity:1;"/>
<stop offset="0.48" style="stop-color:rgb(8.235294%,81.176471%,45.490196%);stop-opacity:1;"/>
<stop offset="0.8" style="stop-color:rgb(2.352941%,90.588235%,45.882353%);stop-opacity:1;"/>
<stop offset="1" style="stop-color:rgb(0%,94.117647%,46.27451%);stop-opacity:1;"/>
</linearGradient>
<filter id="alpha" filterUnits="objectBoundingBox" x="0%" y="0%" width="100%" height="100%">
  <feColorMatrix type="matrix" in="SourceGraphic" values="0 0 0 0 1 0 0 0 0 1 0 0 0 0 1 0 0 0 1 0"/>
</filter>
<mask id="mask0">
  <g filter="url(#alpha)">
<rect x="0" y="0" width="120" height="40" style="fill:rgb(0%,0%,0%);fill-opacity:0.2;stroke:none;"/>
  </g>
</mask>
<clipPath id="clip1">
  <rect x="0" y="0" width="120" height="40"/>
</clipPath>
<g id="surface5" clip-path="url(#clip1)">
<path style=" stroke:none;fill-rule:nonzero;fill:rgb(0%,0%,0%);fill-opacity:1;" d="M 28.644531 22.753906 L 17.425781 28.253906 C 16.96875 28.550781 16.335938 28.550781 15.878906 28.253906 L 15.824219 28.300781 L 15.878906 28.347656 C 16.335938 28.644531 16.96875 28.644531 17.425781 28.347656 L 28.738281 22.8125 Z M 28.644531 22.753906 "/>
</g>
<mask id="mask1">
  <g filter="url(#alpha)">
<rect x="0" y="0" width="120" height="40" style="fill:rgb(0%,0%,0%);fill-opacity:0.121569;stroke:none;"/>
  </g>
</mask>
<clipPath id="clip2">
  <rect x="0" y="0" width="120" height="40"/>
</clipPath>
<g id="surface8" clip-path="url(#clip2)">
<path style=" stroke:none;fill-rule:nonzero;fill:rgb(0%,0%,0%);fill-opacity:1;" d="M 15.824219 28.214844 C 15.570312 27.953125 15.445312 27.617188 15.46875 27.28125 L 15.46875 27.378906 C 15.445312 27.71875 15.570312 28.050781 15.824219 28.3125 L 15.878906 28.265625 Z M 32.515625 20.867188 L 28.644531 22.753906 L 28.714844 22.8125 L 32.515625 20.960938 C 32.957031 20.78125 33.25 20.417969 33.289062 20 C 33.203125 20.375 32.917969 20.695312 32.515625 20.867188 Z M 32.515625 20.867188 "/>
</g>
<mask id="mask2">
  <g filter="url(#alpha)">
<rect x="0" y="0" width="120" height="40" style="fill:rgb(0%,0%,0%);fill-opacity:0.25098;stroke:none;"/>
  </g>
</mask>
<clipPath id="clip3">
  <rect x="0" y="0" width="120" height="40"/>
</clipPath>
<g id="surface11" clip-path="url(#clip3)">
<path style=" stroke:none;fill-rule:nonzero;fill:rgb(100%,100%,100%);fill-opacity:1;" d="M 17.425781 11.746094 L 32.515625 19.132812 C 32.917969 19.304688 33.203125 19.625 33.289062 20 C 33.25 19.582031 32.957031 19.21875 32.515625 19.039062 L 17.425781 11.652344 C 16.34375 11.125 15.460938 11.566406 15.460938 12.632812 L 15.460938 12.734375 C 15.484375 11.660156 16.351562 11.21875 17.425781 11.746094 Z M 17.425781 11.746094 "/>
</g>
</defs>
<g id="surface1">
<path style=" stroke:none;fill-rule:nonzero;fill:rgb(0%,0%,0%);fill-opacity:1;" d="M 11.613281 6.667969 L 108.386719 6.667969 C 110.523438 6.667969 112.257812 8.160156 112.257812 10 L 112.257812 30 C 112.257812 31.839844 110.523438 33.332031 108.386719 33.332031 L 11.613281 33.332031 C 9.476562 33.332031 7.742188 31.839844 7.742188 30 L 7.742188 10 C 7.742188 8.160156 9.476562 6.667969 11.613281 6.667969 Z M 11.613281 6.667969 "/>
<path style=" stroke:none;fill-rule:nonzero;fill:rgb(65.098039%,65.098039%,65.098039%);fill-opacity:1;" d="M 108.386719 7.199219 C 110.183594 7.199219 111.640625 8.453125 111.640625 10 L 111.640625 30 C 111.640625 31.546875 110.183594 32.800781 108.386719 32.800781 L 11.613281 32.800781 C 9.816406 32.800781 8.359375 31.546875 8.359375 30 L 8.359375 10 C 8.359375 8.453125 9.816406 7.199219 11.613281 7.199219 L 108.386719 7.199219 M 108.386719 6.667969 L 11.613281 6.667969 C 9.476562 6.667969 7.742188 8.160156 7.742188 10 L 7.742188 30 C 7.742188 31.839844 9.476562 33.332031 11.613281 33.332031 L 108.386719 33.332031 C 110.523438 33.332031 112.257812 31.839844 112.257812 30 L 112.257812 10 C 112.257812 8.160156 110.523438 6.667969 108.386719 6.667969 Z M 108.386719 6.667969 "/>
<path style="fill-rule:nonzero;fill:rgb(100%,100%,100%);fill-opacity:1;stroke-width:0.2;stroke-linecap:butt;stroke-linejoin:miter;stroke:rgb(100%,100%,100%);stroke-opacity:1;stroke-miterlimit:10;" d="M 57.41862 20.238281 C 57.453939 20.982422 57.181478 21.703125 56.671875 22.242188 C 56.09668 22.833984 55.294434 23.162109 54.472005 23.132812 C 53.200521 23.121094 52.065267 22.353516 51.580892 21.181641 C 51.101562 20.003906 51.368978 18.662109 52.262044 17.759766 C 52.842285 17.167969 53.639486 16.839844 54.472005 16.857422 C 54.890788 16.857422 55.30957 16.945312 55.698079 17.109375 C 56.061361 17.255859 56.384277 17.484375 56.641602 17.777344 L 56.111816 18.310547 C 55.703125 17.830078 55.097656 17.566406 54.472005 17.601562 C 53.841309 17.595703 53.23584 17.853516 52.791829 18.304688 C 52.352865 18.755859 52.115723 19.371094 52.140951 19.998047 C 52.125814 20.953125 52.685872 21.820312 53.563802 22.201172 C 54.436686 22.576172 55.455892 22.394531 56.14209 21.732422 C 56.44987 21.398438 56.626465 20.964844 56.641602 20.507812 L 54.472005 20.507812 L 54.472005 19.787109 L 57.378255 19.787109 C 57.408529 19.939453 57.41862 20.091797 57.41862 20.238281 Z M 62 17.742188 L 59.300618 17.742188 L 59.300618 19.640625 L 61.757812 19.640625 L 61.757812 20.361328 L 59.300618 20.361328 L 59.300618 22.259766 L 62 22.259766 L 62 22.998047 L 58.498372 22.998047 L 58.498372 16.998047 L 62 16.998047 Z M 65.279622 22.998047 L 64.50765 22.998047 L 64.50765 17.742188 L 62.83252 17.742188 L 62.83252 16.998047 L 67.000163 16.998047 L 67.000163 17.742188 L 65.279622 17.742188 Z M 69.941732 22.998047 L 69.941732 16.998047 L 70.708659 16.998047 L 70.708659 22.998047 Z M 74.129557 22.998047 L 73.357585 22.998047 L 73.357585 17.742188 L 71.682454 17.742188 L 71.682454 16.998047 L 75.799642 16.998047 L 75.799642 17.742188 L 74.129557 17.742188 Z M 83.610189 22.21875 C 82.394206 23.431641 80.426432 23.431641 79.210449 22.21875 C 78.029785 20.970703 78.029785 19.019531 79.210449 17.771484 C 79.79069 17.185547 80.582845 16.851562 81.410319 16.851562 C 82.237793 16.851562 83.029948 17.185547 83.610189 17.771484 C 84.795898 19.019531 84.795898 20.970703 83.610189 22.21875 Z M 79.780599 21.720703 C 80.683757 22.617188 82.136882 22.617188 83.040039 21.720703 C 83.923014 20.742188 83.923014 19.253906 83.040039 18.28125 C 82.136882 17.384766 80.683757 17.384766 79.780599 18.28125 C 78.892578 19.253906 78.892578 20.742188 79.780599 21.720703 Z M 85.577962 22.998047 L 85.577962 16.998047 L 86.521484 16.998047 L 89.437826 21.667969 L 89.437826 16.998047 L 90.209798 16.998047 L 90.209798 22.998047 L 89.407552 22.998047 L 86.360026 18.111328 L 86.360026 22.998047 Z M 85.577962 22.998047 " transform="matrix(0.774194,0,0,0.666667,0,0)"/>
<path style=" stroke:none;fill-rule:nonzero;fill:rgb(100%,100%,100%);fill-opacity:1;" d="M 60.496094 21.167969 C 58.679688 21.175781 57.214844 22.445312 57.21875 24.007812 C 57.226562 25.570312 58.699219 26.835938 60.515625 26.832031 C 62.332031 26.832031 63.800781 25.5625 63.800781 24 C 63.8125 23.242188 63.46875 22.515625 62.847656 21.980469 C 62.222656 21.445312 61.375 21.152344 60.496094 21.167969 Z M 60.496094 25.71875 C 59.675781 25.769531 58.90625 25.382812 58.554688 24.746094 C 58.199219 24.109375 58.335938 23.351562 58.894531 22.832031 C 59.453125 22.316406 60.320312 22.144531 61.085938 22.402344 C 61.847656 22.660156 62.351562 23.292969 62.355469 24 C 62.378906 24.441406 62.195312 24.875 61.847656 25.199219 C 61.496094 25.519531 61.007812 25.710938 60.496094 25.71875 Z M 53.289062 21.167969 C 51.472656 21.171875 50.003906 22.441406 50.003906 24.003906 C 50.007812 25.570312 51.480469 26.835938 53.296875 26.832031 C 55.113281 26.832031 56.585938 25.5625 56.585938 24 C 56.597656 23.242188 56.253906 22.515625 55.628906 21.980469 C 55.007812 21.445312 54.160156 21.152344 53.28125 21.167969 Z M 53.289062 25.71875 C 52.46875 25.773438 51.695312 25.386719 51.339844 24.75 C 50.984375 24.113281 51.117188 23.355469 51.675781 22.835938 C 52.234375 22.316406 53.101562 22.144531 53.867188 22.402344 C 54.632812 22.660156 55.136719 23.292969 55.136719 24 C 55.164062 24.441406 54.980469 24.875 54.628906 25.199219 C 54.28125 25.519531 53.792969 25.710938 53.28125 25.71875 Z M 44.703125 22.039062 L 44.703125 23.238281 L 48.046875 23.238281 C 47.992188 23.804688 47.722656 24.339844 47.273438 24.753906 C 46.59375 25.347656 45.660156 25.667969 44.695312 25.632812 C 42.640625 25.632812 40.976562 24.199219 40.976562 22.433594 C 40.976562 20.667969 42.640625 19.234375 44.695312 19.234375 C 45.636719 19.21875 46.546875 19.53125 47.226562 20.09375 L 48.210938 19.246094 C 47.285156 18.441406 46.019531 17.988281 44.703125 18 C 42.828125 17.9375 41.0625 18.761719 40.105469 20.152344 C 39.144531 21.539062 39.144531 23.269531 40.105469 24.65625 C 41.0625 26.042969 42.828125 26.871094 44.703125 26.808594 C 46.042969 26.859375 47.34375 26.410156 48.269531 25.574219 C 49.082031 24.804688 49.515625 23.796875 49.480469 22.761719 C 49.480469 22.507812 49.457031 22.253906 49.402344 22.007812 Z M 79.78125 22.972656 C 79.367188 21.925781 78.246094 21.207031 76.960938 21.167969 C 76.105469 21.164062 75.289062 21.46875 74.703125 22.003906 C 74.113281 22.542969 73.8125 23.265625 73.867188 24 C 73.847656 24.753906 74.183594 25.480469 74.800781 26.015625 C 75.417969 26.546875 76.257812 26.84375 77.132812 26.832031 C 78.234375 26.839844 79.261719 26.367188 79.875 25.578125 L 78.75 24.914062 C 78.410156 25.402344 77.796875 25.703125 77.132812 25.699219 C 76.445312 25.722656 75.8125 25.382812 75.539062 24.839844 L 79.941406 23.273438 Z M 75.289062 23.921875 C 75.257812 23.503906 75.421875 23.09375 75.746094 22.78125 C 76.070312 22.472656 76.523438 22.285156 77.007812 22.265625 C 77.519531 22.238281 78 22.472656 78.230469 22.867188 Z M 71.714844 26.667969 L 73.160156 26.667969 L 73.160156 18.332031 L 71.714844 18.332031 Z M 69.34375 21.800781 L 69.289062 21.800781 C 68.847656 21.375 68.21875 21.132812 67.554688 21.132812 C 65.796875 21.207031 64.417969 22.453125 64.417969 23.96875 C 64.417969 25.484375 65.796875 26.734375 67.554688 26.808594 C 68.21875 26.816406 68.855469 26.570312 69.289062 26.140625 L 69.335938 26.140625 L 69.335938 26.546875 C 69.335938 27.632812 68.664062 28.214844 67.578125 28.214844 C 66.839844 28.199219 66.1875 27.800781 65.921875 27.207031 L 64.660156 27.660156 C 65.148438 28.679688 66.300781 29.339844 67.578125 29.332031 C 69.273438 29.332031 70.675781 28.472656 70.675781 26.378906 L 70.675781 21.332031 L 69.34375 21.332031 Z M 67.6875 25.71875 C 66.652344 25.640625 65.859375 24.894531 65.859375 24 C 65.859375 23.105469 66.652344 22.359375 67.6875 22.28125 C 68.1875 22.300781 68.65625 22.496094 68.988281 22.820312 C 69.316406 23.144531 69.484375 23.570312 69.445312 24 C 69.488281 24.433594 69.324219 24.859375 68.988281 25.183594 C 68.65625 25.511719 68.183594 25.703125 67.679688 25.71875 Z M 86.5625 18.332031 L 83.101562 18.332031 L 83.101562 26.667969 L 84.550781 26.667969 L 84.550781 23.507812 L 86.570312 23.507812 C 87.695312 23.578125 88.769531 23.097656 89.359375 22.269531 C 89.945312 21.441406 89.945312 20.398438 89.359375 19.570312 C 88.769531 18.742188 87.695312 18.265625 86.570312 18.332031 Z M 86.5625 22.332031 L 84.542969 22.332031 L 84.542969 19.492188 L 86.59375 19.492188 C 87.511719 19.492188 88.253906 20.132812 88.253906 20.921875 C 88.253906 21.714844 87.511719 22.351562 86.59375 22.351562 Z M 95.488281 21.132812 C 94.410156 21.078125 93.398438 21.578125 92.910156 22.40625 L 94.195312 22.867188 C 94.453125 22.457031 94.972656 22.214844 95.511719 22.253906 C 95.882812 22.214844 96.257812 22.308594 96.546875 22.511719 C 96.839844 22.710938 97.023438 23.007812 97.0625 23.328125 L 97.0625 23.414062 C 96.59375 23.203125 96.078125 23.089844 95.550781 23.09375 C 94.164062 23.09375 92.765625 23.761719 92.765625 24.964844 C 92.792969 25.488281 93.0625 25.972656 93.515625 26.320312 C 93.964844 26.664062 94.5625 26.839844 95.164062 26.800781 C 95.90625 26.847656 96.617188 26.539062 97.023438 26 L 97.070312 26 L 97.070312 26.667969 L 98.460938 26.667969 L 98.460938 23.460938 C 98.460938 22 97.175781 21.152344 95.527344 21.152344 Z M 95.3125 25.699219 C 94.839844 25.699219 94.179688 25.492188 94.179688 24.992188 C 94.179688 24.328125 95 24.105469 95.730469 24.105469 C 96.1875 24.097656 96.644531 24.195312 97.046875 24.386719 C 96.945312 25.132812 96.222656 25.703125 95.351562 25.71875 Z M 103.539062 21.332031 L 101.882812 24.945312 L 101.835938 24.945312 L 100.117188 21.332031 L 98.570312 21.332031 L 101.148438 26.386719 L 99.675781 29.191406 L 101.1875 29.191406 L 105.152344 21.332031 Z M 90.527344 26.667969 L 91.972656 26.667969 L 91.972656 18.332031 L 90.527344 18.332031 Z M 90.527344 26.667969 "/>
<path style=" stroke:none;fill-rule:nonzero;fill:url(#linear0);" d="M 15.824219 11.691406 C 15.570312 11.953125 15.445312 12.289062 15.46875 12.625 L 15.46875 27.375 C 15.445312 27.710938 15.570312 28.046875 15.824219 28.308594 L 15.878906 28.351562 L 25.472656 20.101562 L 25.472656 19.90625 L 15.878906 11.648438 Z M 15.824219 11.691406 "/>
<path style=" stroke:none;fill-rule:nonzero;fill:url(#linear1);" d="M 28.644531 22.851562 L 25.472656 20.101562 L 25.472656 19.90625 L 28.644531 17.148438 L 28.714844 17.179688 L 32.515625 19.039062 C 33.601562 19.566406 33.601562 20.433594 32.515625 20.964844 L 28.730469 22.820312 Z M 28.644531 22.851562 "/>
<path style=" stroke:none;fill-rule:nonzero;fill:url(#linear2);" d="M 28.738281 22.8125 L 25.472656 20 L 15.824219 28.308594 C 16.28125 28.652344 16.957031 28.667969 17.433594 28.347656 L 28.746094 22.8125 "/>
<path style=" stroke:none;fill-rule:nonzero;fill:url(#linear3);" d="M 28.738281 17.1875 L 17.425781 11.652344 C 16.949219 11.332031 16.273438 11.347656 15.816406 11.691406 L 25.472656 20 Z M 28.738281 17.1875 "/>
<use xlink:href="#surface5" mask="url(#mask0)"/>
<use xlink:href="#surface8" mask="url(#mask1)"/>
<use xlink:href="#surface11" mask="url(#mask2)"/>
</g>
</svg>
